# xmcd
#
# Track frame offsets:
#	150
#	13205
#	23023
#	39222
#	51291
#	65838
#	82414
#	96280
#	116238
#	130301
#	146768
#	161620
#
# Disc length: 2349 seconds
#
# Revision: 1
# Processed by: cddbd v1.4PL0 Copyright (c) Steve Scherf et al.
# Submitted via: audiograbber 1.81.03
#
DISCID=af092b0c
DTITLE=Lynda Randle - Timeless Christmas
DYEAR=2000
DGENRE=Southern Gospel
TTITLE0=Go Tell It on the Mountain
TTITLE1=O Little Town of Bethlehem
TTITLE2=O Come All Ye Faithful
TTITLE3=Mary's Boy Child
TTITLE4=Away in a Manger
TTITLE5=Sweet Little Jesus Boy
TTITLE6=Silent Night
TTITLE7=Hark the Herald Angels Sing
TTITLE8=Angels We Have Heard on High
TTITLE9=Thank You Baby Jesus
TTITLE10=White Christmas
TTITLE11=Silver Bells
EXTD=
EXTT0=
EXTT1=
EXTT2=
EXTT3=
EXTT4=
EXTT5=
EXTT6=
EXTT7=
EXTT8=
EXTT9=
EXTT10=
EXTT11=
PLAYORDER=
